# xmcd
#
# Track frame offsets: 
#        150
#        31983
#        77886
#        94995
#        117527
#        144191
#        181714
#        204061
#        267104
#
# Disc length: 4222 seconds
#
# Revision: 0
# Processed by: cddbd v1.5.1PL2 Copyright (c) Steve Scherf et al.
# Submitted via: ExactAudioCopy v0.95b2
#
DISCID=6e107c09
DTITLE=David Bromberg Quartet - Merlefest 2006 (29 APR 2006 - Watson S
DTITLE=tage)
DYEAR=2006
DGENRE=Blues
TTITLE0=Don't Let Your Deal Go Down
TTITLE1=I'll Take You Back
TTITLE2=Shuffle In A
TTITLE3=Last Song For Shelby Jean
TTITLE4=Dark Hollow
TTITLE5=Last Date
TTITLE6=Drown In My Own Tears
TTITLE7=Testify About My Love
TTITLE8=New Lee Highway Blues
EXTD=
EXTT0=
EXTT1=
EXTT2=
EXTT3=
EXTT4=
EXTT5=
EXTT6=
EXTT7=
EXTT8=
PLAYORDER=
